# xmcd
#
# Track frame offsets:
#	150
#	12895
#	27780
#	49455
#	66305
#	77597
#	92365
#	103507
#	116015
#	131415
#
# Disc length: 2014
#
# Revision: 6
# Processed by: cddbd v1.5.1PL0 Copyright (c) Steve Scherf et al.
# Submitted via: tcd 2.0b
# Normalized: r4:DSETVAR1,TDELIM( - ),TSWAP
#
DISCID=7707dc0a
DTITLE=Various Artist - Stompin' at the Savoy (Best of the Big Bands)
DYEAR=1900
DGENRE=
TTITLE0=Louis Armstrong - Stompin At The Savoy
TTITLE1=Glenn Miller - In The Mood
TTITLE2=Louis Armstrong - Tea For Two
TTITLE3=Jimmy Dorsey - The Nearness Of You
TTITLE4=Artie Shaw - Nightmare
TTITLE5=Benny Goodman - Frankie And Johnny
TTITLE6=Glenn Miller - Chattanooga Choo Choo
TTITLE7=Duke Ellington - Pretty Woman
TTITLE8=Charlie Barnett - Good For Nothin' Joe
TTITLE9=Jimmy Dorsey - I've Got Rhythm
EXTD=
EXTT0=
EXTT1=
EXTT2=
EXTT3=
EXTT4=
EXTT5=
EXTT6=
EXTT7=
EXTT8=
EXTT9=
PLAYORDER=
